# xmcd
#
# Track frame offsets:
# 150
# 7862
# 31116
# 54733
# 76528
# 96805
# 103662
# 126666
# 144996
# 167520
# 177332
# 193722
# 213691
# 237131
# 258923
#
# Disc length: 3789 seconds
#
#
# Revision: 6
# Processed by: cddbd v1.5PL3 Copyright (c) Steve Scherf et al.
# Submitted via: FreeRIP 2.60 
#
DISCID=c00ecb0f
DTITLE=Bone Thugs-n-harmony - The Art Of War/Disc 2
DYEAR=1900
DGENRE=
TTITLE0=Mo' Thug
TTITLE1=Thug Luv (Featuring 2Pac)
TTITLE2=Hatin Nation
TTITLE3=7 Sign (Featuring Maje$Ty)
TTITLE4=Wasteland Warriors (Featuring Souljah Boy)
TTITLE5=Neighborhood Slang
TTITLE6=U Ain't Bone
TTITLE7=Get Cha Thug On
TTITLE8=All Original
TTITLE9=Blaze It
TTITLE10=Let The Law End
TTITLE11=Whom Die They Lie
TTITLE12=Friends
TTITLE13=Evil Paradise
TTITLE14=Mo' Thug Family Tree
EXTD=
EXTT0=
EXTT1=
EXTT2=
EXTT3=
EXTT4=
EXTT5=
EXTT6=
EXTT7=
EXTT8=
EXTT9=
EXTT10=
EXTT11=
EXTT12=
EXTT13=
EXTT14=
PLAYORDER=
